<?xml version="1.0" encoding="utf-8"?>
<!-- Generator: Adobe Illustrator 25.2.1, SVG Export Plug-In . SVG Version: 6.00 Build 0)  -->
<svg version="1.1" id="Layer_1" xmlns="http://www.w3.org/2000/svg" xmlns:xlink="http://www.w3.org/1999/xlink" x="0px" y="0px"
	 viewBox="0 0 24 24" style="enable-background:new 0 0 24 24;" xml:space="preserve">
<style type="text/css">
	.st0{fill:#2B2B2B;}
</style>
<g id="Layer_1_1_">
</g>
<path class="st0" d="M14.9,22.4H9.2c-5.1,0-7.3-2.2-7.3-7.4V9.3C1.9,4.2,4,2,9.2,2h5.7c5.1,0,7.4,2.2,7.4,7.3V15
	C22.2,20.2,20,22.4,14.9,22.4z M9.2,3.3c-4.4,0-6,1.5-6,6V15c0,4.4,1.5,6,5.9,6h5.7c4.4,0,5.9-1.5,5.9-6V9.3c0-4.4-1.5-5.9-5.9-5.9
	L9.2,3.3z"/>
<path class="st0" d="M12,7.2c-2.9,0-5.2,2.3-5.2,5.2c0,2.9,2.3,5.2,5.2,5.2c2.9,0,5.2-2.3,5.2-5.2C17.1,9.5,14.8,7.2,12,7.2z
	 M12,15.7c-1.8,0-3.3-1.5-3.3-3.4C8.6,10.5,10.1,9,12,9c1.9,0,3.4,1.5,3.4,3.3C15.3,14.2,13.8,15.7,12,15.7z M18.5,7
	c0,0.7-0.5,1.2-1.2,1.2c-0.7,0-1.2-0.5-1.2-1.2s0.5-1.2,1.2-1.2C18,5.8,18.5,6.4,18.5,7z"/>
</svg>
